<?xml version="1.0" standalone="no"?>
<!DOCTYPE svg PUBLIC "-//W3C//DTD SVG 20010904//EN"
 "http://www.w3.org/TR/2001/REC-SVG-20010904/DTD/svg10.dtd">
<svg version="1.0" xmlns="http://www.w3.org/2000/svg"
 width="292.000000pt" height="246.000000pt" viewBox="0 0 292.000000 246.000000"
 preserveAspectRatio="xMidYMid meet">

<g transform="translate(0.000000,246.000000) scale(0.100000,-0.100000)"
fill="#000000" stroke="none">
<path d="M1457 2320 c-27 -5 -72 -20 -100 -34 -79 -40 -784 -602 -829 -661
-74 -98 -73 -89 -73 -655 l0 -505 31 -66 c44 -93 93 -142 182 -187 l76 -37
776 0 776 0 76 37 c89 45 138 94 182 187 l31 66 0 505 c0 566 1 557 -73 655
-34 44 -413 354 -723 589 -126 96 -218 125 -332 106z m141 -115 c42 -13 121
-70 432 -316 232 -183 390 -315 405 -337 45 -70 46 -89 43 -597 -3 -454 -4
-482 -23 -520 -25 -50 -80 -105 -130 -130 -39 -19 -64 -20 -805 -20 -741 0
-766 1 -805 20 -50 25 -105 80 -130 130 -19 38 -20 66 -23 520 -3 508 -2 527
43 597 15 22 173 154 401 334 443 350 458 358 592 319z"/>
<path d="M1210 631 c-14 -27 -13 -47 6 -65 13 -14 55 -16 304 -16 249 0 291 2
304 16 19 18 20 38 6 65 -10 18 -24 19 -310 19 -286 0 -300 -1 -310 -19z"/>
</g>
</svg>
