<?xml version="1.0" standalone="no"?>
<!DOCTYPE svg PUBLIC "-//W3C//DTD SVG 20010904//EN"
 "http://www.w3.org/TR/2001/REC-SVG-20010904/DTD/svg10.dtd">
<svg version="1.0" xmlns="http://www.w3.org/2000/svg"
 width="60.000000pt" height="71.000000pt" viewBox="0 0 60.000000 71.000000"
 preserveAspectRatio="xMidYMid meet">

<g transform="translate(0.000000,71.000000) scale(0.100000,-0.100000)"
fill="#000000" stroke="none">
<path d="M468 670 c-95 -16 -141 -66 -137 -146 5 -73 -23 -82 -41 -14 -14 53
-51 80 -109 80 -69 0 -77 -9 -52 -58 11 -22 33 -50 48 -62 26 -21 37 -21 89
-5 17 5 23 0 34 -25 8 -18 9 -35 4 -40 -5 -5 -47 -10 -94 -12 l-85 -3 -3 -29
c-3 -20 3 -35 16 -45 14 -11 23 -39 32 -96 21 -134 11 -126 142 -123 l113 3
19 108 c13 72 23 107 32 107 19 0 29 47 14 65 -9 11 -34 15 -91 15 l-78 0 9
28 c18 60 18 60 60 48 34 -9 44 -7 67 10 16 11 38 40 50 65 24 47 35 130 18
134 -5 1 -31 -1 -57 -5z m38 -72 c-21 -88 -58 -125 -112 -112 -32 8 -30 21 8
61 23 24 27 33 16 33 -9 0 -28 -14 -42 -31 l-26 -31 0 27 c0 14 5 35 11 47 13
25 84 57 126 58 l31 0 -12 -52z m-268 -44 c28 -19 29 -39 1 -24 -35 19 -45 5
-11 -15 18 -11 32 -23 32 -26 0 -14 -40 -20 -60 -9 -20 11 -60 66 -60 83 0 13
75 7 98 -9z m232 -204 c0 -19 -7 -20 -165 -20 -139 0 -165 2 -165 15 0 12 27
15 163 18 89 1 163 4 165 5 1 1 2 -7 2 -18z m-30 -46 c0 -3 -7 -46 -16 -94
l-16 -89 -99 -3 -99 -3 -10 55 c-6 30 -15 74 -19 98 l-9 42 134 0 c74 0 134
-3 134 -6z"/>
</g>
</svg>
