<?xml version="1.0" standalone="no"?>
<!DOCTYPE svg PUBLIC "-//W3C//DTD SVG 20010904//EN"
 "http://www.w3.org/TR/2001/REC-SVG-20010904/DTD/svg10.dtd">
<svg version="1.0" xmlns="http://www.w3.org/2000/svg"
 width="292.000000pt" height="246.000000pt" viewBox="0 0 292.000000 246.000000"
 preserveAspectRatio="xMidYMid meet">

<g transform="translate(0.000000,246.000000) scale(0.100000,-0.100000)"
fill="#000000" stroke="none">
<path d="M2104 2181 c-37 -23 -54 -65 -54 -137 l0 -54 -55 0 c-71 0 -120 -20
-139 -59 -20 -38 -20 -64 0 -102 19 -39 68 -59 139 -59 l55 0 0 -55 c0 -71 20
-120 59 -139 38 -20 64 -20 102 0 39 19 59 68 59 139 l0 55 55 0 c31 0 71 6
90 14 35 15 65 59 65 96 0 37 -30 81 -65 96 -19 8 -59 14 -90 14 l-55 0 0 55
c0 71 -20 120 -59 139 -40 21 -69 20 -107 -3z"/>
<path d="M811 1979 c-92 -18 -192 -104 -227 -195 -18 -46 -19 -83 -19 -659 l0
-610 25 -50 c13 -27 43 -68 65 -90 22 -22 63 -52 90 -65 l50 -25 615 0 615 0
52 24 c62 28 136 103 166 169 21 45 22 62 25 397 2 192 1 364 -3 381 -7 39
-47 81 -85 89 -41 9 -95 -19 -114 -60 -14 -28 -16 -84 -16 -377 0 -301 -2
-346 -16 -367 -36 -50 -43 -51 -625 -51 -601 0 -592 -1 -623 65 -14 29 -16
102 -16 574 0 582 1 589 51 625 21 14 66 16 367 16 383 0 396 2 426 65 20 41
20 49 0 90 -30 63 -43 65 -421 64 -186 -1 -358 -5 -382 -10z"/>
</g>
</svg>
